#!OML:ASF F:\VICON\USERDATA\INSTALL\rory3\rory3.ASF
:FULLY-SPECIFIED
:DEGREES
61
root -0.05742180166398492 18.129335821786864 36.17083443072814 -3.399880279082845 -0.6790172449721381 -4.993236920582528
lfemur -8.885112038038406 -0.39198438490365684 -14.360700787248124
ltibia 66.81868373829428
lfoot 6.522320671769118 -10.472721859308187
ltoes -2.48716970140553
rfemur -13.021718148035195 5.918267142833571 30.984630940651858
rtibia 28.22024898942411
rfoot -10.976508088901836 -4.809778937941193
rtoes 9.337729747471494
lowerback 9.585145392481941 -0.3011526057750362 2.818789031104343
upperback 0.6082125119121229 0.05109956212378686 2.9473770903417083
thorax -4.750785082725425 -0.004386593773842096 1.5640640982945646
lowerneck -15.950860877664919 -2.688753289989644 -2.546351549403474
upperneck 21.37009144831422 -3.4460907417145887 1.4490853017387317
head 9.383190516058605 -1.670052544682068 0.5106370968593189
lclavicle -2.31383051044159e-15 -9.359568670169379e-17
lhumerus -26.493238680082186 -1.8540253894423586 84.55778657855558
lradius 28.095907094408897
lwrist 4.502722909067577
lhand -26.770149192514378 22.799972649169575
lfingers 7.1250199999999975
lthumb -0.1980734172125745 52.78187488008208
rclavicle -2.31383051044159e-15 -9.359568670169379e-17
rhumerus -31.275838114086554 -22.9206747343102 -77.37458113807762
rradius 21.97273600779315
rwrist 9.55450647424799
rhand -16.70446863594283 23.12901975236347
rfingers 7.1250199999999975
rthumb 9.5206077485176 -6.466866140840104
62
root -0.06442273109855307 18.14071060455282 35.96852895085987 -3.4162356621671917 -1.792213427052229 -5.340025017739773
lfemur -14.051566666775285 0.9363445354914206 -14.419119495334261
ltibia 66.84774066532935
lfoot 0.1507355079494621 -6.3859884999231165
ltoes -4.042781208111249
rfemur -10.183095707673699 5.904008715460841 31.82352784297663
rtibia 27.582855536219487
rfoot -13.211542721171504 -4.949511599996605
rtoes 8.528903019449613
lowerback 9.632551705599402 0.2972993129819704 3.563229941332229
upperback 0.6230465029033214 0.9142498725601939 2.661115144324697
thorax -4.751688344168726 0.40291258890701986 0.7437611124991097
lowerneck -15.943150108609906 -2.7437138445528158 -2.4661223812313238
upperneck 21.273875839835238 -3.5420102954716213 1.46765158401551
head 9.358511432930149 -1.7023432993577448 0.48053694830603744
lclavicle -2.401975296581771e-15 -1.5238929432011113e-16
lhumerus -28.075390634561998 -0.879909950304417 84.33422303302633
lradius 27.153145802667193
lwrist 4.582432780191765
lhand -27.1083655991402 22.35021155926264
lfingers 7.1250199999999975
lthumb -0.5247243026423737 52.33312114289404
rclavicle -2.401975296581771e-15 -1.5238929432011113e-16
rhumerus -29.82067447532061 -20.218575562532425 -78.95116024384397
rradius 23.178301222882066
rwrist 7.578364543613684
rhand -16.82978715578864 22.108600684335496
rfingers 7.1250199999999975
rthumb 9.399713701207466 -7.406537698791745
63
root -0.04748939022825788 18.102666821125606 35.81045204674731 -3.190898520948995 -2.9061820680008292 -5.694199638091954
lfemur -17.925299447839905 1.6723514864858173 -14.373890273272096
ltibia 62.60317661744497
lfoot -3.638152785923731 -2.8021532065765387
ltoes -4.6390342207954705
rfemur -7.622886940591694 5.926288548911989 32.71844717049934
rtibia 27.200639761865848
rfoot -15.344402899600503 -5.054060525185655
rtoes 7.9842733156250905
lowerback 9.709186962538947 0.8447080104124248 4.442618613651818
upperback 0.6018886913283654 1.734317653025849 2.442054999668788
thorax -4.763217913600949 0.7853425221163574 -0.03666614433813997
lowerneck -16.043094376281722 -2.7648795415070104 -2.381153646522683
upperneck 21.073621890378217 -3.5774580477685443 1.4196543897822296
head 9.313950155563354 -1.7135524574233427 0.4396418218727426
lclavicle -2.2988628107352826e-15 -8.361205203574546e-17
lhumerus -29.61437515801392 0.2746638904017541 83.96835577742667
lradius 26.38510354713187
lwrist 4.905223731948436
lhand -27.504496350342382 21.72162506608764
lfingers 7.1250199999999975
lthumb -0.9073021135426229 51.702127578521235
rclavicle -2.2988628107352826e-15 -8.361205203574546e-17
rhumerus -28.39177403869165 -17.281034375995898 -80.16723645999912
rradius 24.64920273793046
rwrist 5.477325216759017
rhand -17.024079199830258 21.520364737447434
rfingers 7.1250199999999975
rthumb 9.212231680801834 -7.939070295168632
64
root -0.040937204105398306 18.019800644221863 35.665294266073275 -2.7648315155370247 -4.039010749437111 -6.369706270581853
lfemur -21.010669310037343 1.2526313421470014 -13.67967296835916
ltibia 53.56044027159167
lfoot -5.150675736162956 0.35535273231689923
ltoes -4.533268299578386
rfemur -5.2636613130498455 5.936943599540852 33.63202478987639
rtibia 26.09350242394823
rfoot -17.56967346022912 -5.5223148248351315
rtoes 7.511592496805657
lowerback 9.712094962224448 1.3068627699048214 5.367726477517825
upperback 0.5554137165246171 2.4521030997981654 2.31681095054233
thorax -4.759153080268282 1.1175129462780018 -0.8358500752484278
lowerneck -16.264196115503985 -2.7815161104822304 -2.313899408520742
upperneck 20.771250581626173 -3.6033633013444897 1.3366552956256859
head 9.237065235976132 -1.72048286967925 0.3928915103716504
lclavicle -2.7038010684139917e-15 -3.5371064345333867e-16
lhumerus -31.201839128969613 1.5702312794696165 83.5113326153274
lradius 25.328557517994614
lwrist 4.927901910054096
lhand -28.060661614537445 21.043516664366
lfingers 7.1250199999999975
lthumb -1.4444381715208818 51.01984608105013
rclavicle -2.7038010684139917e-15 -3.5371064345333867e-16
rhumerus -27.028283299338828 -14.526151480272155 -81.12593377367705
rradius 26.067300309713094
rwrist 3.3978489554087563
rhand -17.299369061655963 21.73963653924205
rfingers 7.1250199999999975
rthumb 8.946557461405058 -7.675323228315111
65
root -0.03437318002454165 17.91679163610332 36.03099092436637 -2.1515911337216322 -5.106710626365291 -7.214874292448098
lfemur -22.864349063739674 -0.3704025891557743 -11.993479295034714
ltibia 41.476059076821045
lfoot -5.3270955439023915 3.6506392059151453
ltoes -4.021687434780066
rfemur -2.211543227822215 6.064606664134249 34.641264130781536
rtibia 24.44674049332155
rfoot -19.70801847613806 -6.136691114734033
rtoes 6.68160858236427
lowerback 9.572875454395477 1.7661763725796469 6.351472646488336
upperback 0.4994455266455661 3.165922039043813 2.2970434306973684
thorax -4.697708230612577 1.4493522071643268 -1.5284778988525218
lowerneck -16.55965899111524 -2.8015547261340417 -2.202108149438118
upperneck 20.4441253088862 -3.6389954034265672 1.2832030538908126
head 9.154458007697766 -1.7291670916699198 0.353485005928438
lclavicle -3.017984289543883e-15 -5.6327455619945e-16
lhumerus -32.661567814888805 3.2633540688848433 82.98274958647137
lradius 23.83426998581826
lwrist 4.523143095274785
lhand -28.53297023474824 20.90321218323152
lfingers 7.1250199999999975
lthumb -1.900581143492718 50.876500504125204
rclavicle -3.017984289543883e-15 -5.6327455619945e-16
rhumerus -25.568433843988547 -12.197058521138622 -81.77395814315301
rradius 27.270711940369328
rwrist 1.786609987158557
rhand -17.58220490235223 22.44147753250743
rfingers 7.1250199999999975
rthumb 8.6735900408165 -6.956996976933169
66
root 0.0066222174419103275 17.815298007018697 36.92400900315907 -1.4170020565173487 -5.995534850858221 -7.910104313087599
lfemur -23.2416354523386 -2.628565709028311 -9.714935286963897
ltibia 29.20875548890965
lfoot -4.8148785874025295 6.792258989049256
ltoes -3.430956649598314
rfemur 1.9002075271846852 6.395475113394593 35.67535217164806
rtibia 23.04846062510456
rfoot -21.503415815008672 -6.392307228385546
rtoes 4.832301829285287
lowerback 9.312658823843973 2.250421296835991 7.290913953599482
upperback 0.44590321871643 3.8939490853777468 2.350736027982466
thorax -4.577013876573005 1.792304931129836 -1.9690273439329173
lowerneck -16.823518210884245 -2.8254407423462196 -2.0078786394909836
upperneck 20.19881214619653 -3.6890667845764464 1.3031474128456686
head 9.104005814534684 -1.7418891197172763 0.327705668471703
lclavicle -2.665377091978057e-15 -3.280814033992457e-16
lhumerus -33.842140409352794 5.423557334264152 82.3524566703293
lradius 22.034616048656265
lwrist 3.635812028193225
lhand -28.596321933140228 21.60310947030256
lfingers 7.1250199999999975
lthumb -1.961747011239372 51.5748544738797
rclavicle -2.665377091978057e-15 -3.280814033992457e-16
rhumerus -24.031171128405614 -10.552252584372965 -81.99643149463566
rradius 28.230554190240017
rwrist 1.0291334370206364
rhand -17.80699658712955 23.18223689496329
rfingers 7.1250199999999975
rthumb 8.456626936502033 -6.26596094012411
67
root 0.07347105308744556 17.718380624646308 37.08029771840862 -0.8499967395134438 -6.635173913944209 -8.300065090405791
lfemur -23.21876341114306 -4.531555792563733 -8.21037133315318
ltibia 19.685345475592975
lfoot -4.354872133430234 8.263163140541305
ltoes -3.0264892060881916
rfemur 5.825511419280245 6.690392078062295 36.0595029373178
rtibia 22.456330760887575
rfoot -22.656298084846085 -6.0261066119120095
rtoes 1.5476516213398632
lowerback 9.037050841196903 2.6347109790589265 7.749312124798896
upperback 0.3983256840735132 4.428784541059748 2.34751344781324
thorax -4.46862242052301 2.0514230019054156 -2.2081142524181208
lowerneck -16.985879810623832 -2.876979444782195 -1.8113309780922866
upperneck 20.063891393623216 -3.7849428409431147 1.3615752710399494
head 9.084159465949956 -1.772864479297793 0.300887676255835
lclavicle -2.459115968593882e-15 -1.9050280582978442e-16
lhumerus -34.97057916233711 7.616955783632388 81.52324731498256
lradius 20.01576284855699
lwrist 2.1662885368654226
lhand -28.22731714745137 22.693486715897073
lfingers 7.1250199999999975
lthumb -1.6053394673397836 52.665700979297256
rclavicle -2.459115968593882e-15 -1.9050280582978442e-16
rhumerus -22.85706908300304 -9.979694872100177 -81.95758916112132
rradius 28.8230918878759
rwrist 1.0011332231853718
rhand -17.98479715212371 23.69592899671764
rfingers 7.1250199999999975
rthumb 8.284986624384317 -5.850921687534589
68
root 0.14944833225455167 17.638236684363267 36.994603706777596 -0.7279046176323685 -6.7995318557237425 -8.1059064882636
lfemur -23.19134925340279 -5.221253627953693 -8.35819276529857
ltibia 16.027185306782293
lfoot -3.710257172210745 7.167423065417818
ltoes -2.248310552969783
rfemur 8.738258360986586 6.687730373621811 35.46857658775239
rtibia 23.901581048137007
rfoot -21.774043556196588 -4.649731791948177
rtoes -2.3697227804001835
lowerback 8.855785169490316 2.854289809639126 7.585259955680856
upperback 0.3709249457283428 4.676443149471174 2.216509891904474
thorax -4.41410063566939 2.181024055930922 -2.250316328777056
lowerneck -17.008350203007428 -2.9747381370990142 -1.6845130544242246
upperneck 20.046839825748535 -3.944204532819637 1.4527151686925415
head 9.086240988687267 -1.8311189798600709 0.28000166027850404
lclavicle -2.438408108496692e-15 -1.7669041904266226e-16
lhumerus -36.071921896846156 9.610597169104537 80.54588898797361
lradius 18.1056168718623
lwrist 0.270634067704953
lhand -27.534302105087203 23.65097069799072
lfingers 7.1250199999999975
lthumb -0.9360160026309734 53.62658708760969
rclavicle -2.438408108496692e-15 -1.7669041904266226e-16
rhumerus -22.328095246468287 -10.311468862722148 -81.82486990975839
rradius 29.10466001846494
rwrist 1.3726987582456989
rhand -18.140471217345816 23.990886334590094
rfingers 7.1250199999999975
rthumb 8.134696016698141 -5.675509727433106
